<svg width="251" height="210" viewBox="0 0 251 210" fill="none" xmlns="http://www.w3.org/2000/svg">
<path d="M224.648 91.94C217.556 91.94 211.61 96.3078 210.116 102.135H169.931L154.609 79.0007L186.304 51.2149C188.587 52.4114 191.203 53.0504 193.931 53.0504C197.91 53.0504 201.651 51.6915 204.466 49.2249C207.28 46.7577 208.829 43.4781 208.829 39.9893C208.829 36.5009 207.279 33.2213 204.466 30.7546L204.465 30.7542C201.651 28.2875 197.91 26.9286 193.931 26.9286C189.951 26.9286 186.21 28.2871 183.396 30.7542C178.481 35.0633 177.727 41.6591 181.13 46.672L150.805 73.2564L145.836 65.7538H123.34V25.7404C129.838 24.3352 134.672 19.1848 134.672 13.0608C134.671 5.85921 127.988 0.00050354 119.773 0.00050354C111.558 0.00050354 104.875 5.85921 104.875 13.0612C104.875 19.1258 109.614 24.2368 116.016 25.7002V65.7538H93.7106L88.7414 73.2569L58.42 46.6753C59.7848 44.675 60.5137 42.3809 60.5137 39.9893C60.5137 36.5009 58.9637 33.2213 56.1499 30.7542C53.3357 28.2871 49.5947 26.9286 45.615 26.9286C41.6358 26.9286 37.8948 28.2875 35.081 30.7542L35.0805 30.7546C32.2668 33.2213 30.7168 36.5009 30.7168 39.9893C30.7168 43.4781 32.2663 46.7577 35.0805 49.2244C37.8948 51.6915 41.6358 53.05 45.615 53.05C48.3431 53.05 50.959 52.411 53.2417 51.2145L84.9377 79.0007L69.6156 102.134H29.4306C27.9362 96.3069 21.9897 91.9396 14.8978 91.9396C6.68299 91.94 0 97.7987 0 105C0 112.202 6.68299 118.061 14.8982 118.061C21.7076 118.061 27.4604 114.034 29.2313 108.555H69.8991L84.8282 131.095L53.2379 158.789C47.5197 155.805 39.9964 156.467 35.081 160.776C32.2668 163.243 30.7172 166.522 30.7172 170.011C30.7172 173.5 32.2673 176.779 35.081 179.246C37.8952 181.713 41.6363 183.071 45.6155 183.071C49.5951 183.071 53.3362 181.713 56.1499 179.246C58.9641 176.779 60.5137 173.499 60.5137 170.011C60.5137 167.619 59.7848 165.326 58.42 163.325L88.6319 136.839L93.7106 144.507H116.016V184.3C109.613 185.763 104.875 190.875 104.875 196.939C104.875 204.14 111.558 210 119.773 210C127.988 210 134.671 204.141 134.671 196.939C134.671 190.814 129.837 185.664 123.34 184.259V144.507H145.836L150.914 136.839L181.13 163.328C177.727 168.341 178.481 174.937 183.397 179.246C186.211 181.713 189.952 183.071 193.932 183.071C197.911 183.071 201.652 181.713 204.466 179.246C207.28 176.779 208.829 173.499 208.829 170.011C208.829 166.522 207.28 163.242 204.466 160.775C199.551 156.467 192.027 155.805 186.309 158.789L154.719 131.095L169.648 108.554H210.316C212.087 114.033 217.839 118.061 224.649 118.061C232.864 118.061 239.548 112.202 239.548 105C239.547 97.7979 232.863 91.94 224.648 91.94ZM188.575 35.2942C190.006 34.0396 191.908 33.3488 193.932 33.3488C195.955 33.3488 197.857 34.0396 199.288 35.2938L199.288 35.2942C200.718 36.5481 201.507 38.2158 201.507 39.9893C201.507 41.7632 200.719 43.431 199.288 44.6856C197.857 45.9399 195.955 46.6306 193.932 46.6306C191.908 46.6306 190.006 45.9399 188.575 44.6856C185.621 42.0959 185.621 37.8832 188.575 35.2942ZM50.9711 44.6848C49.5404 45.9395 47.6385 46.6302 45.6145 46.6302C43.5915 46.6302 41.6891 45.9395 40.2589 44.6848C38.8277 43.4305 38.0398 41.7632 38.0398 39.9889C38.0398 38.2154 38.8277 36.5477 40.2584 35.2938L40.2589 35.2934C41.6891 34.0391 43.5915 33.3484 45.6145 33.3484C47.6381 33.3484 49.5404 34.0391 50.9716 35.2938C52.4023 36.5477 53.1902 38.2154 53.1902 39.9889C53.1902 41.7632 52.4023 43.431 50.9711 44.6848ZM14.8982 111.641C10.7216 111.641 7.3235 108.662 7.3235 105.001C7.3235 101.339 10.7216 98.3602 14.8982 98.3602C19.0749 98.3602 22.473 101.339 22.473 105.001C22.473 108.662 19.0749 111.641 14.8982 111.641ZM50.9711 174.707C49.5404 175.962 47.6385 176.652 45.6145 176.652C43.5915 176.652 41.6891 175.962 40.2584 174.707C38.8277 173.453 38.0398 171.786 38.0398 170.012C38.0398 168.238 38.8277 166.57 40.2589 165.316C41.7355 164.021 43.6752 163.374 45.6145 163.374C47.5548 163.374 49.4941 164.022 50.9711 165.316C52.4023 166.57 53.1902 168.237 53.1902 170.012C53.1902 171.785 52.4023 173.453 50.9711 174.707ZM188.575 165.316C191.529 162.727 196.335 162.727 199.287 165.316C200.718 166.57 201.506 168.238 201.506 170.012C201.506 171.786 200.718 173.453 199.287 174.708C197.857 175.962 195.955 176.653 193.931 176.653C191.908 176.653 190.005 175.962 188.575 174.707C185.622 172.118 185.621 167.906 188.575 165.316ZM112.199 13.0612C112.199 9.39969 115.597 6.42071 119.774 6.42071C123.95 6.42071 127.348 9.39969 127.348 13.0612C127.348 16.7227 123.95 19.7016 119.774 19.7016C115.597 19.7016 112.199 16.7223 112.199 13.0612ZM127.348 196.94C127.348 200.602 123.95 203.581 119.773 203.581C115.596 203.581 112.198 200.602 112.198 196.94C112.198 193.279 115.596 190.3 119.773 190.3C123.95 190.3 127.348 193.279 127.348 196.94ZM141.619 138.088H97.9275L76.0997 105.131L97.9275 72.1736H141.619L163.447 105.131L141.619 138.088ZM224.648 111.641C220.472 111.641 217.074 108.662 217.074 105.001C217.074 101.339 220.472 98.3602 224.648 98.3602C228.825 98.3602 232.224 101.339 232.224 105.001C232.224 108.662 228.825 111.641 224.648 111.641Z" fill="#716F6F"/>
<path d="M123.829 102.136H116.018V108.557H123.829V102.136Z" fill="black"/>
<path d="M134.571 102.136H127.247V108.557H134.571V102.136Z" fill="black"/>
<path d="M112.6 102.136H104.789V108.557H112.6V102.136Z" fill="black"/>
</svg>
