<svg
        fill="#a3a3a3"
        viewBox="0 0 1024 1024"
        xmlns="http://www.w3.org/2000/svg"
>
    <g id="SVGRepo_bgCarrier" stroke-width="0"></g>
    <g
            id="SVGRepo_tracerCarrier"
            stroke-linecap="round"
            stroke-linejoin="round"
    ></g>
    <g id="SVGRepo_iconCarrier">
        <path d="M96 448H32c-17.664 0-32 14.336-32 32v64c0 17.664 14.336 32 32 32h64c17.664 0 32-14.336 32-32v-64c0-17.664-14.336-32-32-32zm896 32H320c-17.664 0-32 14.336-32 32s14.336 32 32 32h672c17.664 0 32-14.336 32-32s-14.336-32-32-32zM96 704H32c-17.664 0-32 14.336-32 32v64c0 17.664 14.336 32 32 32h64c17.664 0 32-14.336 32-32v-64c0-17.664-14.336-32-32-32zm896 32H320c-17.664 0-32 14.336-32 32s14.336 32 32 32h672c17.664 0 32-14.336 32-32s-14.336-32-32-32zM96 192H32c-17.664 0-32 14.336-32 32v64c0 17.664 14.336 32 32 32h64c17.664 0 32-14.336 32-32v-64c0-17.664-14.336-32-32-32zm224 96h672c17.664 0 32-14.336 32-32s-14.336-32-32-32H320c-17.664 0-32 14.336-32 32s14.336 32 32 32z"></path>
    </g>
</svg>